<?xml version="1.0" standalone="no"?>
<!DOCTYPE svg PUBLIC "-//W3C//DTD SVG 20010904//EN"
 "http://www.w3.org/TR/2001/REC-SVG-20010904/DTD/svg10.dtd">
<svg version="1.0" xmlns="http://www.w3.org/2000/svg"
 width="720.000000pt" height="720.000000pt" viewBox="0 0 720.000000 720.000000"
 preserveAspectRatio="xMidYMid meet">
<metadata>
Created by potrace 1.11, written by Peter Selinger 2001-2013
</metadata>
<g transform="translate(0.000000,720.000000) scale(0.100000,-0.100000)"
fill="#000000" stroke="none">
<path d="M3547 7194 c-1 -1 -65 -4 -142 -7 -865 -36 -1733 -426 -2360 -1062
-524 -532 -881 -1230 -990 -1935 -3 -19 -7 -46 -10 -60 -7 -41 -14 -98 -30
-268 -9 -84 -9 -416 -1 -522 58 -748 323 -1417 800 -2014 111 -139 386 -412
536 -532 101 -81 390 -284 404 -284 2 0 43 -23 92 -51 340 -196 799 -355 1194
-414 420 -63 879 -54 1274 26 695 140 1343 490 1843 996 602 610 959 1388
1032 2248 9 99 7 543 -2 600 -3 17 -8 62 -12 100 -33 342 -160 784 -325 1130
-559 1171 -1726 1962 -3010 2040 -102 7 -289 12 -293 9z"/>
</g>
</svg>
